<svg width="23" height="22" viewBox="0 0 23 22" fill="none" xmlns="http://www.w3.org/2000/svg">
<path d="M22.7416 10.4986L20.7088 7.91827C20.6351 7.82101 20.5422 7.74071 20.4361 7.6826C20.33 7.62449 20.2131 7.58988 20.0929 7.58103H20.0278H19.9578L19.5672 7.51461L18.8112 7.42264L18.2604 7.35621L17.3742 7.24891C17.1914 7.21964 17.0042 7.24263 16.8335 7.31533L16.8635 7.17226C16.8929 7.05351 16.8987 6.92996 16.8806 6.80888C16.8626 6.68779 16.821 6.57161 16.7583 6.46714C16.7233 6.40071 16.6832 6.3394 16.6482 6.26787L16.5981 6.18611C16.5895 6.16559 16.5776 6.14661 16.5631 6.12991C15.9522 5.08414 15.3514 4.0503 14.7606 3.02838C14.6811 2.89363 14.5734 2.77848 14.4452 2.69115L13.2685 1.94515L12.0068 1.12761C11.8649 1.03472 11.6998 0.985352 11.5311 0.985352C11.3625 0.985352 11.1974 1.03472 11.0555 1.12761L9.91392 1.87361L8.68223 2.68604C8.55177 2.77008 8.4421 2.88374 8.36178 3.01816C7.86109 3.88679 7.3604 4.76053 6.85972 5.62917L6.64943 5.99195L6.54929 6.15545L6.49922 6.23721L6.38406 6.44159C6.26257 6.64887 6.22486 6.89625 6.27892 7.13139C6.27892 7.20803 6.31396 7.28979 6.32899 7.36643C6.11996 7.26018 5.88432 7.22099 5.65305 7.25402L5.23748 7.30511L5.05723 7.33066L4.82692 7.35621L4.25613 7.42774L3.8706 7.47373L3.54515 7.50439L2.90928 7.57592C2.7827 7.58897 2.66009 7.62835 2.54901 7.69162C2.43792 7.75489 2.34071 7.84072 2.26339 7.94381C1.95296 8.33725 1.63752 8.73069 1.3271 9.12924L0.916532 9.6402L0.235595 10.5191C0.101906 10.6855 0.0330877 10.8963 0.0423268 11.1113C0.051566 11.3263 0.138213 11.5302 0.285664 11.684L1.10179 12.5527L1.53739 13.0176C1.70261 13.1965 1.86784 13.3702 2.03808 13.5286L2.21832 13.7177C2.36853 13.8812 2.51874 14.0498 2.71901 14.2286C3.0695 14.5607 3.42499 14.8878 3.77547 15.2097L4.18103 15.5827L5.62802 16.9214L6.79463 17.9995L8.13647 19.236L8.29669 19.3842C8.50698 19.5835 8.72729 19.7879 8.96261 19.982L9.96399 20.82C10.2093 21.0193 10.4647 21.2237 10.69 21.428L10.7801 21.5047C10.8739 21.5906 10.9725 21.6708 11.0755 21.7448H11.1106H11.1356H11.1656H11.2007H11.2458H11.2958H11.3409H11.6012H11.6413C11.6577 21.7494 11.675 21.7494 11.6914 21.7448H11.7314H11.7665H11.7965L11.8466 21.7091L11.9267 21.6478L13.1083 20.6258L13.4288 20.355C13.6841 20.1404 13.9295 19.9207 14.2048 19.6959C14.4802 19.4711 14.7055 19.2207 14.9809 18.9857L15.2913 18.6944L16.0273 18.0148L17.0287 17.1053L17.8999 16.298L19.4521 14.8673L19.6924 14.6476C19.8977 14.4586 20.113 14.2644 20.3233 14.0498L21.0693 13.4315C21.1494 13.3447 21.2345 13.2578 21.3146 13.1658L21.9605 12.476C22.2058 12.2205 22.4612 11.9651 22.6915 11.6994C22.8511 11.5451 22.9455 11.3335 22.9548 11.1093C22.9642 10.8852 22.8877 10.6662 22.7416 10.4986ZM8.0113 6.84525L8.23161 6.47225L9.67359 3.9992L10.7951 3.25831L11.5562 2.77801L12.4324 3.34007L13.4638 4.00431C14.0379 4.99558 14.6104 5.98684 15.1812 6.9781L15.2212 7.03942V7.06496L15.1962 7.18759L15.1662 7.31533L15.1361 7.46862C15.1061 7.59125 15.076 7.71388 15.051 7.83651L14.9609 8.25039L13.8043 8.82778C13.5689 8.94734 13.3891 9.15656 13.3036 9.41027C13.0282 10.2431 12.7428 11.0862 12.4724 11.9038L12.0569 13.079L11.5161 14.6885L10.3345 11.2037C10.1943 10.795 10.0591 10.3913 9.91893 9.98765L9.70363 9.36428C9.66631 9.24851 9.60681 9.14146 9.52859 9.04935C9.45037 8.95725 9.35499 8.88193 9.248 8.82778L8.46192 8.43434L8.16151 8.28616L8.0864 7.92338C8.05136 7.7752 8.02132 7.62702 7.98627 7.47884L7.94621 7.28979L7.91617 7.15694C7.91617 7.11095 7.91617 7.07007 7.89114 7.0292L8.0113 6.84525ZM9.95398 18.7148C9.74869 18.5411 9.55342 18.3623 9.34814 18.1681L9.18291 18.0199L7.84107 16.7783L6.67947 15.7053L5.22747 14.3666L4.82191 13.9885C4.47643 13.6717 4.12595 13.3498 3.78548 13.0279C3.6553 12.9001 3.52512 12.7571 3.38493 12.6089L3.19467 12.4045L2.69398 11.8935L2.25838 11.4286L1.89788 11.0453L2.17827 10.6928L2.59384 10.1818L3.3599 9.21099L3.75043 9.1599L4.0158 9.12924L4.40634 9.07815L4.96711 9.01172L5.19743 8.98106H5.37768L5.6831 8.9453L6.73454 9.45625L7.07501 9.62487L7.1401 9.65553L7.30533 9.73728L7.74594 9.96211L8.27166 10.2278L8.39183 10.5804C8.53202 10.984 8.67221 11.3877 8.8074 11.7913L10.2043 15.879L10.705 17.4119C10.705 17.7287 10.705 18.5922 10.705 19.4098L9.95398 18.7148ZM20.7989 11.3366L20.153 12.0264L19.9027 12.2921C19.6974 12.5169 19.4821 12.7468 19.2718 12.9665C19.0615 13.1863 18.9163 13.3089 18.7211 13.4775L18.4657 13.7074L16.9186 15.1381L16.0624 15.9557L15.061 16.8652L14.325 17.5448L14.0096 17.8462C13.7692 18.071 13.5089 18.3061 13.2685 18.5258C13.0282 18.7455 12.7679 18.9499 12.5275 19.1543L12.3222 19.328C12.3222 18.5207 12.3222 17.6776 12.3222 17.3608L12.3773 17.1973C12.4474 16.998 12.5125 16.7987 12.6176 16.4922L13.574 13.6155L13.9695 12.4403C14.2098 11.7096 14.4702 10.9534 14.7105 10.2023L15.8271 9.67086L15.9723 9.59421H16.0073L16.1325 9.5329L16.493 9.35917L17.2841 8.96062L18.0201 9.04749L18.5758 9.11902L19.3319 9.21099L19.6023 9.24165L21.0693 11.03L20.7989 11.3366Z" fill="#6FC4E8"/>
</svg>
