<svg width="236" height="48" viewBox="0 0 236 48" fill="none" xmlns="http://www.w3.org/2000/svg">
<path d="M215.464 19.123V19.3612H214.739V21.266H214.428V19.3612H213.737V19.123H215.464Z" fill="#2A2E2F"/>
<path d="M216.881 20.5859C216.881 20.6199 216.915 20.6539 216.915 20.6539C216.915 20.6199 216.95 20.5859 216.95 20.5859C216.95 20.5518 216.984 20.5178 216.984 20.5178L217.745 19.1912C217.745 19.1572 217.779 19.1572 217.779 19.1572C217.779 19.1572 217.814 19.1572 217.848 19.1572H218.056V21.3342H217.779V19.7355C217.779 19.7015 217.779 19.7015 217.779 19.6675C217.779 19.6334 217.779 19.6334 217.779 19.5994L217.019 20.96C216.984 20.994 216.95 21.028 216.915 21.028H216.881C216.846 21.028 216.812 20.994 216.777 20.96L216.017 19.5994C216.017 19.6334 216.017 19.6675 216.017 19.6675C216.017 19.7015 216.017 19.7015 216.017 19.7355V21.3342H215.741V19.1572H215.948C215.983 19.1572 215.983 19.1572 216.017 19.1572L216.052 19.1912L216.812 20.5178C216.846 20.5518 216.881 20.5859 216.881 20.5859Z" fill="#2A2E2F"/>
<path d="M129.366 29.0212C129.228 29.0212 129.194 29.0893 129.124 29.3614C129.055 29.6675 128.813 30.1777 128.537 30.4839C127.846 31.2662 126.913 31.4363 125.358 31.4363C123.009 31.4363 119.9 29.4294 119.9 25.3816C119.9 23.7149 120.211 22.1162 121.489 20.9597C122.249 20.2794 123.216 19.9052 124.737 19.9052C126.326 19.9052 127.673 20.3474 128.261 20.9597C128.675 21.4019 128.917 22.0142 128.952 22.5244C128.952 22.7625 128.986 22.8985 129.124 22.8985C129.263 22.8985 129.297 22.7625 129.332 22.5244C129.366 22.1842 129.366 21.2658 129.401 20.6876C129.435 20.0753 129.47 19.8712 129.47 19.7352C129.47 19.6331 129.401 19.5651 129.194 19.5311C128.675 19.497 128.122 19.327 127.466 19.2589C126.671 19.1569 126.015 19.0889 124.944 19.0889C122.353 19.0889 120.694 19.7692 119.45 20.8917C117.792 22.3883 117.412 24.3952 117.412 25.5857C117.412 27.2525 117.861 29.1573 119.554 30.6199C121.143 31.9805 123.113 32.4908 125.566 32.4227C126.671 32.4227 127.984 32.3207 128.675 32.0486C128.952 31.9125 129.055 31.8105 129.124 31.5383C129.297 30.9601 129.504 29.4634 129.504 29.2593C129.504 29.1573 129.47 29.0212 129.366 29.0212Z" fill="#2AAAE2"/>
<path d="M136.587 21.0957C131.957 21.0957 130.195 24.2931 130.195 26.7762C130.195 29.3273 131.992 32.4567 136.449 32.4567C140.388 32.4567 142.841 29.8375 142.841 26.5041C142.841 23.1706 140.457 21.0957 136.587 21.0957ZM137.071 31.6744C134.203 31.6744 132.476 29.3273 132.476 26.334C132.476 22.7284 134.445 21.844 136.172 21.844C138.626 21.844 140.595 23.8169 140.595 27.0143C140.595 31.1641 138.142 31.6744 137.071 31.6744Z" fill="#2AAAE2"/>
<path d="M158.181 31.9805C158.008 31.9805 157.766 31.9465 157.317 31.8444C156.868 31.7084 156.73 31.3342 156.591 30.4158L155.209 21.4699C155.14 21.1637 154.968 20.9937 154.864 20.9937C154.726 20.9937 154.587 21.1297 154.484 21.3678L150.372 29.5314L146.261 21.5039C146.054 21.0957 145.95 21.0277 145.777 21.0277C145.639 21.0277 145.535 21.1637 145.501 21.4018L143.912 30.824C143.842 31.3002 143.704 31.8784 143.29 31.9465C143.048 31.9805 142.944 31.9805 142.806 31.9805C142.633 31.9805 142.564 32.0485 142.564 32.1165C142.564 32.2526 142.702 32.2866 142.841 32.2866C143.324 32.2866 144.084 32.2186 144.361 32.2186C144.637 32.2186 145.328 32.2866 145.985 32.2866C146.226 32.2866 146.365 32.2526 146.365 32.1165C146.365 32.0485 146.261 31.9805 146.123 31.9805C145.985 31.9805 145.846 31.9465 145.605 31.9125C145.328 31.8784 145.121 31.7764 145.121 31.5043C145.121 31.2662 145.155 31.0961 145.19 30.824L145.915 25.2115H145.985C146.468 26.232 147.367 27.9667 147.505 28.2729C147.678 28.681 148.887 30.892 149.267 31.5723C149.509 32.0145 149.681 32.2866 149.889 32.2866C150.061 32.2866 150.165 32.1506 150.511 31.4703L153.793 25.0754H153.862L154.691 31.3342C154.76 31.7424 154.726 31.9125 154.622 31.9465C154.518 31.9805 154.449 32.0485 154.449 32.1165C154.449 32.1846 154.518 32.2526 154.898 32.2866C155.52 32.3206 157.662 32.3547 158.042 32.3547C158.284 32.3547 158.422 32.3206 158.422 32.1846C158.422 32.0485 158.319 31.9805 158.181 31.9805Z" fill="#2AAAE2"/>
<path d="M174.73 31.9805C174.557 31.9805 174.315 31.9465 173.866 31.8444C173.417 31.7084 173.279 31.3342 173.141 30.4158L171.759 21.4699C171.69 21.1637 171.517 20.9937 171.413 20.9937C171.275 20.9937 171.137 21.1297 171.033 21.3678L166.887 29.5314L162.776 21.5039C162.569 21.0957 162.465 21.0277 162.292 21.0277C162.154 21.0277 162.05 21.1637 162.016 21.4018L160.426 30.824C160.357 31.3002 160.219 31.8784 159.805 31.9465C159.563 31.9805 159.459 31.9805 159.321 31.9805C159.148 31.9805 159.079 32.0485 159.079 32.1165C159.079 32.2526 159.217 32.2866 159.355 32.2866C159.839 32.2866 160.599 32.2186 160.876 32.2186C161.152 32.2186 161.843 32.2866 162.499 32.2866C162.741 32.2866 162.879 32.2526 162.879 32.1165C162.879 32.0485 162.776 31.9805 162.638 31.9805C162.499 31.9805 162.361 31.9805 162.119 31.9125C161.843 31.8784 161.636 31.7764 161.636 31.5043C161.636 31.2662 161.67 31.0961 161.705 30.824L162.43 25.2115H162.499C162.983 26.232 163.881 27.9667 164.02 28.2729C164.192 28.681 165.402 30.892 165.782 31.5723C166.023 32.0145 166.196 32.2866 166.404 32.2866C166.576 32.2866 166.68 32.1506 167.025 31.4703L170.308 25.0754H170.377L171.206 31.3342C171.275 31.7424 171.241 31.9125 171.137 31.9465C171.033 31.9805 170.964 32.0485 170.964 32.1165C170.964 32.1846 171.033 32.2526 171.413 32.2866C172.035 32.3206 174.177 32.3547 174.557 32.3547C174.799 32.3547 174.937 32.3206 174.937 32.1846C174.972 32.0485 174.868 31.9805 174.73 31.9805Z" fill="#2AAAE2"/>
<path d="M183.506 30.0758C183.402 30.0758 183.368 30.1438 183.333 30.3139C183.229 30.8922 183.057 31.2323 182.677 31.3684C182.297 31.5385 181.64 31.5385 181.26 31.5385C179.705 31.5385 179.222 31.3004 179.187 30.3139C179.152 29.9057 179.187 28.6472 179.187 28.171V27.0145C179.187 26.9124 179.222 26.8444 179.256 26.8444C179.636 26.8444 181.364 26.8784 181.64 26.9124C182.193 26.9805 182.4 27.1845 182.469 27.4907C182.504 27.6608 182.504 27.8648 182.538 28.0009C182.538 28.0689 182.573 28.137 182.677 28.137C182.815 28.137 182.849 27.9329 182.849 27.8308C182.849 27.7288 182.884 27.1505 182.918 26.8784C182.987 26.1641 183.057 25.926 183.057 25.8239C183.057 25.7219 182.987 25.6539 182.918 25.6539C182.849 25.6539 182.78 25.7219 182.677 25.8239C182.504 25.96 182.297 25.994 181.951 26.0621C181.606 26.0961 179.636 26.0961 179.291 26.0961C179.222 26.0961 179.187 26.028 179.187 25.926V22.2864C179.187 22.2184 179.222 22.1503 179.291 22.1503C179.602 22.1503 181.433 22.1843 181.675 22.2184C182.435 22.2864 182.538 22.4905 182.677 22.7286C182.746 22.8987 182.78 23.1368 182.78 23.2388C182.78 23.3749 182.815 23.4089 182.918 23.4089C183.022 23.4089 183.057 23.2388 183.091 23.1708C183.126 23.0007 183.16 22.3884 183.16 22.2184C183.195 21.5381 183.298 21.368 183.298 21.2659C183.298 21.1979 183.264 21.1299 183.195 21.1299C183.126 21.1299 183.022 21.1639 182.953 21.1979C182.815 21.2319 182.607 21.2659 182.331 21.2659C182.055 21.3 178.669 21.2659 178.185 21.2659C177.736 21.2659 176.769 21.2319 175.974 21.2319C175.732 21.2319 175.628 21.2659 175.628 21.368C175.628 21.47 175.732 21.5381 175.905 21.5381C176.147 21.5381 176.388 21.5721 176.527 21.6061C177.01 21.7422 177.149 21.8782 177.183 22.3884C177.218 22.8306 177.218 23.2388 177.218 25.4498V28.1029C177.218 29.4295 177.218 30.586 177.149 31.1983C177.079 31.6065 177.01 31.9126 176.699 31.9807C176.561 32.0147 176.388 32.0487 176.181 32.0487C176.008 32.0487 175.939 32.1507 175.939 32.2188C175.939 32.3208 176.043 32.3888 176.216 32.3888C176.527 32.3888 176.907 32.3548 177.287 32.3548C177.632 32.3548 177.978 32.3208 178.151 32.3208C178.6 32.3208 179.187 32.3548 179.913 32.3548C180.638 32.3888 181.571 32.4229 182.711 32.4229C183.298 32.4229 183.437 32.4229 183.54 32.0487C183.609 31.7426 183.748 30.7561 183.748 30.45C183.644 30.2459 183.609 30.0758 183.506 30.0758Z" fill="#2AAAE2"/>
<path d="M196.013 31.9123C195.874 31.9123 195.805 31.9123 195.633 31.8783C195.391 31.8443 194.838 31.7422 194.009 30.9259C193.111 30.0075 192.039 28.7149 190.657 27.0822C192.143 25.9257 192.765 24.9392 192.765 23.8848C192.765 22.9324 192.143 22.184 191.694 21.8779C190.899 21.3677 189.759 21.2656 188.792 21.2656C188.308 21.2656 186.926 21.2996 186.408 21.2996C186.097 21.2996 185.129 21.2656 184.335 21.2656C184.093 21.2656 183.989 21.2996 183.989 21.4017C183.989 21.5037 184.093 21.5718 184.266 21.5718C184.508 21.5718 184.749 21.6058 184.888 21.6398C185.371 21.7758 185.51 21.9119 185.544 22.4221C185.579 22.8643 185.544 28.0346 185.544 28.0346C185.544 29.3612 185.544 30.5177 185.475 31.13C185.406 31.5381 185.337 31.8443 185.026 31.9123C184.888 31.9463 184.715 31.9803 184.508 31.9803C184.335 31.9803 184.266 32.0824 184.266 32.1504C184.266 32.2525 184.369 32.3205 184.542 32.3205C185.129 32.3205 186.131 32.2525 186.408 32.2525C186.65 32.2525 187.893 32.3205 188.792 32.3205C188.965 32.3205 189.103 32.2525 189.103 32.1504C189.103 32.0824 189.034 31.9803 188.93 31.9803C188.757 31.9803 188.412 31.9463 188.204 31.9123C187.721 31.8443 187.686 31.5722 187.617 31.13C187.548 30.5177 187.548 29.3952 187.548 28.0346V27.8305C187.548 27.7625 187.617 27.6945 187.686 27.6945L189.068 27.7285C189.206 27.7285 189.275 27.7625 189.345 27.8305C189.517 28.0686 190.174 29.021 190.761 29.8034C191.625 30.9259 192.178 31.6062 192.834 31.9463C193.214 32.1504 193.663 32.2184 194.492 32.2184H195.944C196.116 32.2184 196.22 32.1844 196.22 32.0484C196.185 31.9803 196.151 31.9123 196.013 31.9123ZM189.897 26.776C189.656 26.9461 189.448 27.0142 188.826 27.0142C188.446 27.0142 187.997 26.9801 187.652 26.8781C187.548 26.8101 187.513 26.776 187.513 26.606V22.2861C187.513 22.15 187.548 22.116 187.652 22.082C187.824 22.048 188.17 22.048 188.55 22.048C189.448 22.048 190.865 22.5582 190.865 24.6331C190.865 25.8236 190.347 26.4359 189.897 26.776Z" fill="#2AAAE2"/>
<path d="M198.258 22.7284C198.949 22.1502 199.813 21.9121 201.161 21.9121C202.577 21.9121 203.614 22.2522 204.097 22.7624C204.477 23.1366 204.685 23.6468 204.685 24.123C204.685 24.2931 204.719 24.4292 204.857 24.4292C204.996 24.4292 205.03 24.2591 205.065 24.055C205.099 23.7489 205.099 22.9665 205.134 22.4903C205.168 21.9801 205.203 21.81 205.203 21.674C205.203 21.6059 205.134 21.5379 204.961 21.5039C204.512 21.4359 204.028 21.3338 203.441 21.2658C202.75 21.1637 202.197 21.0957 201.23 21.0957C198.949 21.0957 197.498 21.674 196.393 22.6264C194.942 23.8849 194.596 25.6197 194.596 26.6061C194.596 28.0007 194.976 29.6335 196.496 30.892C197.878 32.0145 199.675 32.4567 201.644 32.5247C202.646 32.5247 203.786 32.4567 204.408 32.2186C204.65 32.1165 204.719 32.0485 204.788 31.8104C204.961 31.3002 205.099 30.0416 205.099 29.8716C205.099 29.7355 205.03 29.5994 204.927 29.5994C204.788 29.5994 204.788 29.6675 204.754 29.8716C204.719 30.1437 204.512 30.5519 204.236 30.824C203.614 31.5043 202.888 31.6063 201.541 31.6063C199.502 31.6063 196.773 29.9736 196.773 26.5381C196.842 25.1095 197.118 23.6808 198.258 22.7284Z" fill="#2AAAE2"/>
<path d="M213.944 30.0758C213.84 30.0758 213.806 30.1438 213.771 30.3139C213.668 30.8922 213.495 31.2323 213.115 31.3684C212.735 31.5385 212.078 31.5385 211.698 31.5385C210.144 31.5385 209.66 31.3004 209.625 30.3139C209.591 29.9057 209.625 28.6472 209.625 28.171V27.0145C209.625 26.9124 209.66 26.8444 209.694 26.8444C210.074 26.8444 211.802 26.8784 212.078 26.9124C212.631 26.9805 212.838 27.1845 212.908 27.4907C212.942 27.6608 212.942 27.8648 212.977 28.0009C212.977 28.0689 213.011 28.137 213.115 28.137C213.253 28.137 213.288 27.9329 213.288 27.8308C213.288 27.7288 213.322 27.1505 213.357 26.8784C213.426 26.1641 213.495 25.926 213.495 25.8239C213.495 25.7219 213.426 25.6539 213.357 25.6539C213.288 25.6539 213.219 25.7219 213.115 25.8239C212.942 25.96 212.735 25.994 212.389 26.0621C212.044 26.0961 210.074 26.0961 209.729 26.0961C209.66 26.0961 209.625 26.028 209.625 25.926V22.2864C209.625 22.2184 209.66 22.1503 209.729 22.1503C210.04 22.1503 211.871 22.1843 212.113 22.2184C212.873 22.2864 212.977 22.4905 213.115 22.7286C213.184 22.8987 213.219 23.1368 213.219 23.2388C213.219 23.3749 213.253 23.4089 213.357 23.4089C213.46 23.4089 213.495 23.2388 213.529 23.1708C213.564 23.0007 213.599 22.3884 213.599 22.2184C213.633 21.5381 213.737 21.368 213.737 21.2659C213.737 21.1979 213.702 21.1299 213.633 21.1299C213.564 21.1299 213.46 21.1639 213.391 21.1979C213.253 21.2319 213.046 21.2659 212.769 21.2659C212.493 21.3 209.107 21.2659 208.623 21.2659C208.174 21.2659 207.207 21.2319 206.412 21.2319C206.17 21.2319 206.067 21.2659 206.067 21.368C206.067 21.47 206.17 21.5381 206.343 21.5381C206.585 21.5381 206.827 21.5721 206.965 21.6061C207.449 21.7422 207.587 21.8782 207.621 22.3884C207.656 22.8306 207.656 23.2388 207.656 25.4498V28.1029C207.656 29.4295 207.656 30.586 207.587 31.1983C207.518 31.6065 207.449 31.9126 207.138 31.9807C207 32.0147 206.827 32.0487 206.62 32.0487C206.447 32.0487 206.378 32.1507 206.378 32.2188C206.378 32.3208 206.481 32.3888 206.654 32.3888C206.965 32.3888 207.345 32.3548 207.725 32.3548C208.071 32.3548 208.416 32.3208 208.589 32.3208C209.038 32.3208 209.625 32.3548 210.351 32.3548C211.076 32.3888 212.009 32.4229 213.149 32.4229C213.737 32.4229 213.875 32.4229 213.979 32.0487C214.048 31.7426 214.186 30.7561 214.186 30.45C214.082 30.2459 214.048 30.0758 213.944 30.0758Z" fill="#2AAAE2"/>
<path d="M55.8789 29.0212C55.7407 29.0212 55.7062 29.0893 55.6371 29.3614C55.568 29.6675 55.3261 30.1777 55.0497 30.4839C54.3587 31.2662 53.4259 31.4363 51.8712 31.4363C49.5218 31.4363 46.4123 29.4294 46.4123 25.3816C46.4123 23.7149 46.7232 22.1162 48.0016 20.9597C48.7617 20.2794 49.7291 19.9052 51.2493 19.9052C52.8385 19.9052 54.186 20.3474 54.7733 20.9597C55.1879 21.4019 55.4298 22.0142 55.4643 22.5244C55.4643 22.7625 55.4989 22.8985 55.6371 22.8985C55.7753 22.8985 55.8098 22.7625 55.8444 22.5244C55.8789 22.1842 55.8789 21.2658 55.9135 20.6876C55.948 20.0753 55.9826 19.8712 55.9826 19.7352C55.9826 19.6331 55.9135 19.5651 55.7062 19.5311C55.1879 19.497 54.6351 19.327 53.9787 19.2589C53.184 19.1569 52.5276 19.0889 51.4566 19.0889C48.8653 19.0889 47.2069 19.7692 45.9631 20.8917C44.3048 22.3883 43.9247 24.3952 43.9247 25.5857C43.9247 27.2525 44.3739 29.1573 46.0668 30.6199C47.6561 31.9805 49.6254 32.4908 52.0785 32.4227C53.184 32.4227 54.4969 32.3207 55.1879 32.0486C55.4643 31.9125 55.568 31.8105 55.6371 31.5383C55.8098 30.9601 56.0171 29.4634 56.0171 29.2593C56.0517 29.1573 56.0171 29.0212 55.8789 29.0212Z" fill="#8DC641"/>
<path d="M68.7313 31.9123C68.5931 31.9123 68.524 31.9123 68.3513 31.8783C68.1094 31.8443 67.5566 31.7422 66.7275 30.9259C65.8292 30.0075 64.7581 28.7149 63.3761 27.0822C64.8618 25.9257 65.4837 24.9392 65.4837 23.8848C65.4837 22.9324 64.8618 22.184 64.4126 21.8779C63.618 21.3677 62.4778 21.2656 61.5104 21.2656C61.0267 21.2656 59.6447 21.2996 59.1265 21.2996C58.8156 21.2996 57.8482 21.2656 57.0535 21.2656C56.8117 21.2656 56.708 21.2996 56.708 21.4017C56.708 21.5037 56.8117 21.5718 56.9844 21.5718C57.2263 21.5718 57.4681 21.6058 57.6063 21.6398C58.09 21.7758 58.2282 21.9119 58.2628 22.4221C58.2973 22.8643 58.2973 23.2725 58.2973 25.4835C58.2973 25.4835 58.2628 30.5177 58.2282 31.0959C58.1591 31.5041 58.09 31.8103 57.7791 31.8783C57.6409 31.9123 57.4681 31.9463 57.2608 31.9463C57.0881 31.9463 57.019 32.0484 57.019 32.1164C57.019 32.2184 57.1226 32.2865 57.2954 32.2865C57.8827 32.2865 58.8847 32.2184 59.161 32.2184C59.4029 32.2184 60.6467 32.2865 61.545 32.2865C61.7177 32.2865 61.8559 32.2184 61.8559 32.1164C61.8559 32.0484 61.7868 31.9463 61.6832 31.9463C61.5104 31.9463 61.1649 31.9123 60.9576 31.8783C60.4739 31.8103 60.4394 31.5381 60.3703 31.0959C60.3012 30.4837 60.3012 29.3612 60.3012 28.0006V27.8305C60.3012 27.7625 60.3703 27.6945 60.4394 27.6945L61.8214 27.7285C61.9596 27.7285 62.0287 27.7625 62.0978 27.8305C62.2705 28.0686 62.927 29.021 63.5143 29.8034C64.3781 30.9259 64.9309 31.6062 65.5873 31.9463C65.9674 32.1504 66.4165 32.2184 67.2457 32.2184H68.6968C68.8695 32.2184 68.9732 32.1844 68.9732 32.0484C68.9041 31.9803 68.835 31.9123 68.7313 31.9123ZM62.5815 26.776C62.3396 26.9461 62.1323 27.0142 61.5104 27.0142C61.1304 27.0142 60.6812 26.9801 60.3357 26.8781C60.2321 26.8101 60.1975 26.776 60.1975 26.606V22.2861C60.1975 22.15 60.2321 22.116 60.3357 22.082C60.5085 22.048 60.854 22.014 61.234 22.014C62.1323 22.014 63.5489 22.5242 63.5489 24.5991C63.5834 25.8236 63.0652 26.4359 62.5815 26.776Z" fill="#8DC641"/>
<path d="M77.7143 21.2996C77.4034 21.2996 76.4014 21.3337 76.0905 21.3337C75.6413 21.3337 75.1231 21.2996 74.6048 21.2996C74.4321 21.2996 74.3284 21.3337 74.3284 21.4357C74.3284 21.5377 74.4666 21.5718 74.6048 21.6058C74.8812 21.6398 74.9158 21.7758 74.9158 21.9119C74.9158 22.082 74.8467 22.3541 74.6739 22.6943C74.4321 23.1364 72.6009 26.2318 72.3936 26.572C72.1172 26.1638 70.1479 22.7623 69.8715 22.3201C69.7333 22.082 69.6988 21.9459 69.6988 21.8099C69.6988 21.6738 69.7679 21.6398 69.9061 21.5718C70.1479 21.5037 70.2515 21.5037 70.2515 21.4017C70.2515 21.2996 70.1825 21.2656 70.0097 21.2656C69.3187 21.2656 68.5932 21.2996 68.2822 21.2996C67.7985 21.2996 66.6584 21.2656 66.382 21.2656C66.2092 21.2656 66.1056 21.2996 66.1056 21.4017C66.1056 21.5037 66.2092 21.5718 66.3474 21.5718C66.5202 21.5718 66.7966 21.6398 66.9693 21.7418C67.2457 21.9119 67.5567 22.2521 67.9367 22.7623C68.455 23.5446 70.5279 26.742 70.6661 26.9461C71.1153 27.6604 71.0462 28.4428 71.0462 28.4428V29.6673C71.0462 29.9054 71.0462 30.5177 70.9771 31.13C70.9425 31.5381 70.8043 31.8443 70.4934 31.9123C70.3552 31.9463 70.1824 31.9803 69.9752 31.9803C69.8024 31.9803 69.7333 32.0824 69.7333 32.1504C69.7333 32.2865 69.8715 32.3205 70.0443 32.3205C70.6316 32.3205 71.6335 32.2525 72.0136 32.2525C72.4282 32.2525 73.4301 32.3205 74.3975 32.3205C74.6048 32.3205 74.7085 32.2525 74.7085 32.1504C74.7085 32.0824 74.6048 31.9803 74.4321 31.9803C74.2248 31.9803 73.9138 31.9463 73.672 31.9123C73.2228 31.8443 73.0846 31.5722 73.0501 31.13C73.0155 30.5177 73.0155 29.9054 73.0155 29.6673V28.5108C73.0155 28.0346 72.981 27.5924 73.1883 27.0482C73.4647 26.4359 75.6413 23.0004 76.1596 22.4221C76.4705 22.014 76.6433 21.9119 76.9542 21.7418C77.1961 21.6398 77.4379 21.5718 77.6107 21.5718C77.7834 21.5718 77.8871 21.5037 77.8871 21.4017C77.9907 21.3337 77.8525 21.2996 77.7143 21.2996Z" fill="#8DC641"/>
<path d="M81.6185 25.6197L80.9966 25.2795C79.6146 24.5312 79.3728 24.021 79.3728 23.3747C79.3728 22.3883 80.3747 21.81 81.4457 21.81C82.4131 21.81 82.9314 22.2182 83.1387 22.4903C83.4496 22.8645 83.5187 23.3067 83.5187 23.4427C83.5187 23.6128 83.5878 23.7149 83.6915 23.7149C83.8297 23.7149 83.8642 23.5448 83.8642 23.2386C83.8642 22.1162 83.9333 21.674 83.9333 21.5039C83.9333 21.4018 83.8642 21.3678 83.726 21.3338C83.3114 21.2318 82.5513 21.0957 81.5494 21.0957C79.4418 21.0957 77.7144 22.2522 77.7144 24.021C77.7144 25.2795 78.3017 26.266 80.0983 27.3204L80.962 27.8307C82.3095 28.613 82.4822 29.2593 82.4822 29.8716C82.4822 30.892 81.6876 31.7084 80.3747 31.7084C79.4073 31.7084 78.2672 31.3342 77.9217 30.2797C77.8526 30.0416 77.7835 29.7015 77.7835 29.5314C77.7835 29.4294 77.7489 29.2933 77.6107 29.2933C77.4725 29.2933 77.438 29.4634 77.438 29.6675C77.4034 29.9056 77.3689 30.824 77.3689 31.6063C77.3689 31.9465 77.4034 32.0145 77.6453 32.1165C78.3017 32.3887 79.2346 32.4907 80.1328 32.4907C80.9275 32.4907 81.9294 32.3887 82.655 31.8784C83.7606 31.0961 84.1752 30.2117 84.1752 29.1572C84.2443 27.7967 83.6224 26.7082 81.6185 25.6197Z" fill="#8DC641"/>
<path d="M93.0199 22.218C94.4019 22.218 94.7819 22.6602 94.8165 23.0344L94.851 23.2045C94.851 23.4426 94.8856 23.4766 95.0238 23.4766C95.0929 23.4766 95.162 23.4086 95.162 23.2385C95.162 22.8643 95.1965 21.7758 95.1965 21.4697C95.1965 21.2316 95.162 21.1636 95.0583 21.1636C95.0238 21.1636 94.8856 21.1976 94.6437 21.2316C94.4019 21.2656 94.0909 21.2996 93.6072 21.2996H87.4228C86.9391 21.2996 86.3518 21.2996 85.9026 21.2316C85.5226 21.1976 85.3844 21.0615 85.2462 21.0615C85.1771 21.0615 85.108 21.1636 85.0734 21.3336C85.0389 21.4697 84.7625 22.8303 84.7625 23.1024C84.7625 23.2725 84.797 23.3405 84.9007 23.3405C85.0043 23.3405 85.0389 23.2725 85.0734 23.1705C85.108 23.0344 85.1771 22.8643 85.3498 22.6602C85.5917 22.3541 85.9372 22.252 86.8355 22.218L89.0812 22.15H89.1158H89.0812V28.0006C89.0812 29.3272 89.0812 30.4837 89.0121 31.0959C88.943 31.5041 88.8739 31.8103 88.563 31.8783C88.4248 31.9123 88.252 31.9463 88.0447 31.9463C87.872 31.9463 87.8029 32.0484 87.8029 32.1164C87.8029 32.2184 87.9065 32.2865 88.0793 32.2865C88.6666 32.2865 89.7031 32.2184 90.0486 32.2184C90.4632 32.2184 91.4997 32.2865 92.5016 32.2865C92.6744 32.2865 92.778 32.2184 92.778 32.1164C92.778 32.0484 92.7089 31.9463 92.5362 31.9463C92.2943 31.9463 91.9488 31.9123 91.7415 31.8783C91.2924 31.8103 91.2233 31.5381 91.1542 31.13C91.0851 30.5177 91.0851 29.3612 91.0851 28.0346V22.184L93.0199 22.218Z" fill="#8DC641"/>
<path d="M106.183 31.9463C106.011 31.9463 105.838 31.9123 105.596 31.8783C105.32 31.8443 104.905 31.6402 104.318 30.3136C103.35 28.1026 100.794 22.252 100.414 21.4357C100.241 21.1295 100.172 20.9595 99.9645 20.9595C99.7917 20.9595 99.6881 21.1295 99.5153 21.5377L95.5076 30.6197C95.1966 31.334 94.9202 31.7762 94.2292 31.8783C94.091 31.8783 93.9183 31.9123 93.7801 31.9123C93.6764 31.9123 93.6073 31.9803 93.6073 32.0824C93.6073 32.2184 93.711 32.2524 93.8837 32.2524C94.6784 32.2524 95.473 32.1844 95.6457 32.1844C96.1294 32.1844 96.8204 32.2524 97.3387 32.2524C97.5114 32.2524 97.5805 32.2184 97.5805 32.0824C97.5805 31.9803 97.546 31.9123 97.3387 31.9123H97.0968C96.6131 31.9123 96.4749 31.7762 96.4749 31.5041C96.4749 31.334 96.544 30.9939 96.7168 30.6197L97.546 28.6809C97.5805 28.6128 97.6151 28.5788 97.6842 28.5788V28.5448H101.243C101.312 28.5448 101.381 28.5788 101.416 28.6469L102.59 31.6062C102.659 31.7762 102.556 31.9123 102.452 31.9123C102.314 31.9463 102.279 31.9803 102.279 32.0824C102.279 32.1844 102.452 32.1844 102.728 32.2184C104.007 32.2524 105.112 32.2524 105.665 32.2524C106.253 32.2524 106.322 32.2184 106.322 32.0824C106.391 31.9803 106.322 31.9463 106.183 31.9463ZM101.036 27.7965H98.0988C98.0297 27.7965 97.9951 27.7625 98.0297 27.6944L99.5153 24.0888C99.5499 24.0208 99.5499 23.9528 99.5844 23.9528C99.619 23.9528 99.619 24.0208 99.6535 24.0888L101.07 27.7285C101.105 27.7285 101.105 27.7965 101.036 27.7965Z" fill="#8DC641"/>
<path d="M115.27 29.9054C115.166 29.9054 115.132 29.9735 115.097 30.1435C115.063 30.4156 114.89 30.8238 114.717 30.9939C114.337 31.3681 113.75 31.4021 112.921 31.4021C111.746 31.4021 111.159 31.3341 110.882 31.0959C110.571 30.8238 110.571 29.8714 110.571 28.0346L110.537 25.4835C110.537 23.2725 110.537 22.8983 110.571 22.4221C110.606 21.9119 110.744 21.7078 111.159 21.6398C111.331 21.6058 111.573 21.5718 111.746 21.5718C111.953 21.5718 112.022 21.5037 112.022 21.4017C112.022 21.2996 111.919 21.2656 111.711 21.2656C111.124 21.2656 109.88 21.2996 109.5 21.2996C109.086 21.2996 108.118 21.2656 107.427 21.2656C107.185 21.2656 107.116 21.2996 107.116 21.4017C107.116 21.5037 107.22 21.5718 107.393 21.5718C107.6 21.5718 107.773 21.6058 107.911 21.6398C108.395 21.7758 108.533 21.9119 108.567 22.4221C108.602 22.8643 108.602 23.2725 108.602 25.4835V28.0346C108.602 29.3612 108.602 30.5177 108.533 31.13C108.464 31.5381 108.395 31.8443 108.084 31.9123C107.945 31.9463 107.773 31.9803 107.565 31.9803C107.393 31.9803 107.324 32.0824 107.324 32.1504C107.324 32.2525 107.427 32.3205 107.6 32.3205C107.911 32.3205 108.291 32.2865 108.671 32.2865C109.016 32.2865 109.362 32.2525 109.535 32.2525C110.157 32.2525 110.813 32.2865 111.573 32.2865C112.333 32.3205 113.232 32.3545 114.303 32.3545C115.097 32.3545 115.166 32.2865 115.27 31.9803C115.408 31.5722 115.512 30.4837 115.512 30.3136C115.408 30.0755 115.374 29.9054 115.27 29.9054Z" fill="#8DC641"/>
<path d="M38.984 21.6739C38.4658 21.0276 37.3602 19.9391 37.3602 19.9391C37.3602 19.9391 32.9724 19.2588 28.6536 19.2588C24.3349 19.2588 19.9471 19.9391 19.9471 19.9391C19.9471 19.9391 18.8761 21.0276 18.3578 21.6739C17.8396 22.2861 16.9413 23.6807 16.9413 23.6807C18.7033 26.4019 26.1315 32.5586 28.6536 34.2594C31.1758 32.5246 38.6385 26.4019 40.366 23.6467C40.4006 23.6807 39.5023 22.2861 38.984 21.6739Z" fill="#333333"/>
<path d="M31.0377 16.5378L28.6537 15.0752L26.3389 16.5038L24.3696 19.7012V19.7352L28.6537 32.729L32.9379 19.8033V19.7693L31.0377 16.5378Z" fill="#EC2145"/>
<path d="M36.7728 21.096L34.0088 20.7559L31.072 22.1845L28.6536 29.1916V32.7631C28.6536 32.7631 31.5903 30.4161 33.9397 28.3752C36.4618 26.1983 38.7421 23.5111 38.7421 23.5111L36.7728 21.096Z" fill="#8DC641"/>
<path d="M20.5345 21.096L23.2985 20.7559L26.2352 22.1845L28.6537 29.1916V32.7631C28.6537 32.7631 25.717 30.4161 23.3676 28.3752C20.8455 26.1983 18.5306 23.5451 18.5306 23.5451L20.5345 21.096Z" fill="#2AAAE2"/>
</svg>
