<svg width="25" height="25" viewBox="0 0 25 25" fill="none" xmlns="http://www.w3.org/2000/svg">
<path d="M21.8753 3.125H3.12533C1.97949 3.125 1.04199 4.0625 1.04199 5.20833V17.7083C1.04199 18.8542 1.97949 19.7917 3.12533 19.7917H8.33366V21.875H16.667V19.7917H21.8753C23.0212 19.7917 23.9482 18.8542 23.9482 17.7083L23.9587 5.20833C23.9587 4.0625 23.0212 3.125 21.8753 3.125ZM21.8753 17.7083H3.12533V5.20833H21.8753V17.7083ZM19.792 8.33333H8.33366V10.4167H19.792V8.33333ZM19.792 12.5H8.33366V14.5833H19.792V12.5ZM7.29199 8.33333H5.20866V10.4167H7.29199V8.33333ZM7.29199 12.5H5.20866V14.5833H7.29199V12.5Z" fill="#6FC4E8"/>
</svg>
