<svg width="25" height="25" viewBox="0 0 25 25" fill="none" xmlns="http://www.w3.org/2000/svg">
<path d="M12.5003 22.9166C12.0316 22.9166 11.6192 22.8038 11.2633 22.5781C10.9074 22.3524 10.6774 22.0399 10.5732 21.6406H10.2087C9.79199 21.6406 9.42741 21.4844 9.11491 21.1719C8.80241 20.8594 8.64616 20.4948 8.64616 20.0781V16.3541C7.50033 15.6076 6.59755 14.6528 5.93783 13.4896C5.2781 12.3264 4.94824 11.0416 4.94824 9.6354C4.94824 7.5347 5.68175 5.75085 7.14876 4.28383C8.61578 2.81682 10.3996 2.08331 12.5003 2.08331C14.601 2.08331 16.3849 2.81682 17.8519 4.28383C19.3189 5.75085 20.0524 7.5347 20.0524 9.6354C20.0524 11.0416 19.7225 12.3264 19.0628 13.4896C18.4031 14.6528 17.5003 15.6076 16.3545 16.3541V20.0781C16.3545 20.4948 16.1982 20.8594 15.8857 21.1719C15.5732 21.4844 15.2087 21.6406 14.792 21.6406H14.4274C14.3232 22.0399 14.0932 22.3524 13.7373 22.5781C13.3814 22.8038 12.9691 22.9166 12.5003 22.9166ZM10.2087 20.0781H14.792V18.9323H10.2087V20.0781ZM10.2087 17.8906H14.792V16.8489H10.2087V17.8906ZM9.97428 15.2864H11.9014V11.7187L9.50553 9.3229L10.3128 8.5156L12.5003 10.7031L14.6878 8.5156L15.4951 9.3229L13.0993 11.7187V15.2864H15.0264C16.068 14.8003 16.9057 14.0451 17.5394 13.0208C18.1731 11.9965 18.4899 10.868 18.4899 9.6354C18.4899 7.95137 17.9127 6.5321 16.7581 5.37758C15.6036 4.22307 14.1844 3.64581 12.5003 3.64581C10.8163 3.64581 9.39703 4.22307 8.24251 5.37758C7.088 6.5321 6.51074 7.95137 6.51074 9.6354C6.51074 10.868 6.82758 11.9965 7.46126 13.0208C8.09494 14.0451 8.93262 14.8003 9.97428 15.2864Z" fill="#6FC4E8"/>
</svg>
