<svg width="25" height="25" viewBox="0 0 25 25" fill="none" xmlns="http://www.w3.org/2000/svg">
<path d="M21.5556 2C22.2039 2 22.8256 2.25754 23.284 2.71596C23.7425 3.17438 24 3.79614 24 4.44444V21.5556C24 22.2039 23.7425 22.8256 23.284 23.284C22.8256 23.7425 22.2039 24 21.5556 24H4.44444C3.79614 24 3.17438 23.7425 2.71596 23.284C2.25754 22.8256 2 22.2039 2 21.5556V4.44444C2 3.79614 2.25754 3.17438 2.71596 2.71596C3.17438 2.25754 3.79614 2 4.44444 2H21.5556ZM20.9444 20.9444V14.4667C20.9444 13.4099 20.5247 12.3965 19.7774 11.6492C19.0302 10.902 18.0167 10.4822 16.96 10.4822C15.9211 10.4822 14.7111 11.1178 14.1244 12.0711V10.7144H10.7144V20.9444H14.1244V14.9189C14.1244 13.9778 14.8822 13.2078 15.8233 13.2078C16.2771 13.2078 16.7124 13.3881 17.0333 13.709C17.3542 14.0298 17.5344 14.4651 17.5344 14.9189V20.9444H20.9444ZM6.74222 8.79556C7.2868 8.79556 7.80907 8.57922 8.19415 8.19415C8.57922 7.80907 8.79556 7.2868 8.79556 6.74222C8.79556 5.60556 7.87889 4.67667 6.74222 4.67667C6.1944 4.67667 5.66902 4.89429 5.28165 5.28165C4.89429 5.66902 4.67667 6.1944 4.67667 6.74222C4.67667 7.87889 5.60556 8.79556 6.74222 8.79556ZM8.44111 20.9444V10.7144H5.05556V20.9444H8.44111Z" fill="#6FC4E8"/>
</svg>
