<svg width="25" height="25" viewBox="0 0 25 25" fill="none" xmlns="http://www.w3.org/2000/svg">
<path d="M19.7917 2.08331H5.20833C4.05208 2.08331 3.125 3.02081 3.125 4.16665V18.75C3.125 19.8958 4.05208 20.8333 5.20833 20.8333H9.375L12.5 23.9583L15.625 20.8333H19.7917C20.9375 20.8333 21.875 19.8958 21.875 18.75V4.16665C21.875 3.02081 20.9375 2.08331 19.7917 2.08331ZM13.5417 18.75H11.4583V16.6666H13.5417V18.75ZM15.6979 10.6771L14.7604 11.6354C14.0104 12.3958 13.5417 13.0208 13.5417 14.5833H11.4583V14.0625C11.4583 12.9166 11.9271 11.875 12.6771 11.1146L13.9687 9.80206C14.3542 9.42706 14.5833 8.90623 14.5833 8.33331C14.5833 7.18748 13.6458 6.24998 12.5 6.24998C11.3542 6.24998 10.4167 7.18748 10.4167 8.33331H8.33333C8.33333 6.03123 10.1979 4.16665 12.5 4.16665C14.8021 4.16665 16.6667 6.03123 16.6667 8.33331C16.6667 9.24998 16.2917 10.0833 15.6979 10.6771Z" fill="#6FC4E8"/>
</svg>
