<svg width="24" height="23" viewBox="0 0 24 23" fill="none" xmlns="http://www.w3.org/2000/svg">
<path d="M11.9998 7.33317C9.69775 7.33317 7.83317 9.19775 7.83317 11.4998C7.83317 13.8019 9.69775 15.6665 11.9998 15.6665C14.3019 15.6665 16.1665 13.8019 16.1665 11.4998C16.1665 9.19775 14.3019 7.33317 11.9998 7.33317ZM21.3123 10.4582C20.8332 6.11442 17.3853 2.6665 13.0415 2.18734V0.0415039H10.9582V2.18734C6.61442 2.6665 3.1665 6.11442 2.68734 10.4582H0.541504V12.5415H2.68734C3.1665 16.8853 6.61442 20.3332 10.9582 20.8123V22.9582H13.0415V20.8123C17.3853 20.3332 20.8332 16.8853 21.3123 12.5415H23.4582V10.4582H21.3123ZM11.9998 18.7915C7.96859 18.7915 4.70817 15.5311 4.70817 11.4998C4.70817 7.46859 7.96859 4.20817 11.9998 4.20817C16.0311 4.20817 19.2915 7.46859 19.2915 11.4998C19.2915 15.5311 16.0311 18.7915 11.9998 18.7915Z" fill="#6FC4E8"/>
</svg>
