<svg width="25" height="25" viewBox="0 0 25 25" fill="none" xmlns="http://www.w3.org/2000/svg">
<path d="M12.4999 2.0835C6.74992 2.0835 2.08325 6.75016 2.08325 12.5002C2.08325 18.2502 6.74992 22.9168 12.4999 22.9168C18.2499 22.9168 22.9166 18.2502 22.9166 12.5002C22.9166 6.75016 18.2499 2.0835 12.4999 2.0835ZM13.9687 18.8439V20.8335H11.1874V18.8231C9.40617 18.4481 7.89575 17.3022 7.78117 15.2814H9.82284C9.927 16.3752 10.677 17.2293 12.5833 17.2293C14.6249 17.2293 15.0833 16.2085 15.0833 15.5731C15.0833 14.7085 14.6249 13.896 12.302 13.3439C9.71867 12.7189 7.94783 11.6564 7.94783 9.521C7.94783 7.72933 9.39575 6.56266 11.1874 6.17725V4.16683H13.9687V6.19808C15.9062 6.66683 16.8749 8.13558 16.9374 9.72933H14.8958C14.8437 8.57308 14.2291 7.78141 12.5833 7.78141C11.0208 7.78141 10.0833 8.48975 10.0833 9.48975C10.0833 10.3647 10.7603 10.9377 12.8645 11.4793C14.9687 12.021 17.2187 12.9272 17.2187 15.5522C17.2083 17.4585 15.7812 18.5002 13.9687 18.8439Z" fill="#6FC4E8"/>
</svg>
