<svg width="23" height="19" viewBox="0 0 23 19" fill="none" xmlns="http://www.w3.org/2000/svg">
<path d="M13.0415 0.125C7.86442 0.125 3.6665 4.32292 3.6665 9.5H0.541504L4.59359 13.5521L4.6665 13.6979L8.87484 9.5H5.74984C5.74984 5.46875 9.01025 2.20833 13.0415 2.20833C17.0728 2.20833 20.3332 5.46875 20.3332 9.5C20.3332 13.5312 17.0728 16.7917 13.0415 16.7917C11.0311 16.7917 9.20817 15.9688 7.89567 14.6458L6.4165 16.125C8.11442 17.8229 10.4478 18.875 13.0415 18.875C18.2186 18.875 22.4165 14.6771 22.4165 9.5C22.4165 4.32292 18.2186 0.125 13.0415 0.125ZM11.9998 5.33333V10.5417L16.4582 13.1875L17.2082 11.9271L13.5623 9.76042V5.33333H11.9998Z" fill="#6FC4E8"/>
</svg>
