<svg width="25" height="25" viewBox="0 0 25 25" fill="none" xmlns="http://www.w3.org/2000/svg">
<path d="M6.43783 20.8334C7.69197 20.8334 8.70866 19.8167 8.70866 18.5625C8.70866 17.3084 7.69197 16.2917 6.43783 16.2917C5.18368 16.2917 4.16699 17.3084 4.16699 18.5625C4.16699 19.8167 5.18368 20.8334 6.43783 20.8334Z" fill="#6FC4E8"/>
<path d="M4.16699 4.625V7.57292C11.4899 7.57292 17.4274 13.5104 17.4274 20.8333H20.3753C20.3753 11.8854 13.1149 4.625 4.16699 4.625ZM4.16699 10.5208V13.4687C8.22949 13.4687 11.5316 16.7708 11.5316 20.8333H14.4795C14.4795 15.1354 9.86491 10.5208 4.16699 10.5208Z" fill="#6FC4E8"/>
</svg>
