<svg width="25" height="25" viewBox="0 0 25 25" fill="none" xmlns="http://www.w3.org/2000/svg">
<path d="M19.9376 13.475C19.9751 13.1625 20.0001 12.8375 20.0001 12.5C20.0001 12.1625 19.9751 11.8375 19.9251 11.525L22.0376 9.875C22.2251 9.725 22.2751 9.45 22.1626 9.2375L20.1626 5.775C20.0376 5.55 19.7751 5.475 19.5501 5.55L17.0626 6.55C16.5376 6.15 15.9876 5.825 15.3751 5.575L15.0001 2.925C14.9626 2.675 14.7501 2.5 14.5001 2.5H10.5001C10.2501 2.5 10.0501 2.675 10.0126 2.925L9.63757 5.575C9.02507 5.825 8.46257 6.1625 7.95007 6.55L5.46257 5.55C5.23757 5.4625 4.97507 5.55 4.85007 5.775L2.85007 9.2375C2.72507 9.4625 2.77507 9.725 2.97507 9.875L5.08757 11.525C5.03757 11.8375 5.00007 12.175 5.00007 12.5C5.00007 12.825 5.02507 13.1625 5.07507 13.475L2.96257 15.125C2.77507 15.275 2.72507 15.55 2.83757 15.7625L4.83757 19.225C4.96257 19.45 5.22507 19.525 5.45007 19.45L7.93757 18.45C8.46257 18.85 9.01257 19.175 9.62507 19.425L10.0001 22.075C10.0501 22.325 10.2501 22.5 10.5001 22.5H14.5001C14.7501 22.5 14.9626 22.325 14.9876 22.075L15.3626 19.425C15.9751 19.175 16.5376 18.8375 17.0501 18.45L19.5376 19.45C19.7626 19.5375 20.0251 19.45 20.1501 19.225L22.1501 15.7625C22.2751 15.5375 22.2251 15.275 22.0251 15.125L19.9376 13.475ZM12.5001 16.25C10.4376 16.25 8.75007 14.5625 8.75007 12.5C8.75007 10.4375 10.4376 8.75 12.5001 8.75C14.5626 8.75 16.2501 10.4375 16.2501 12.5C16.2501 14.5625 14.5626 16.25 12.5001 16.25Z" fill="#6FC4E8"/>
</svg>
