<svg width="25" height="25" viewBox="0 0 25 25" fill="none" xmlns="http://www.w3.org/2000/svg">
<path d="M8.11111 2C4.73656 2 2 4.73656 2 8.11111V17.8889C2 21.2634 4.73656 24 8.11111 24H17.8889C21.2634 24 24 21.2634 24 17.8889V8.11111C24 4.73656 21.2634 2 17.8889 2H8.11111ZM20.3333 4.44444C21.008 4.44444 21.5556 4.992 21.5556 5.66667C21.5556 6.34133 21.008 6.88889 20.3333 6.88889C19.6587 6.88889 19.1111 6.34133 19.1111 5.66667C19.1111 4.992 19.6587 4.44444 20.3333 4.44444ZM13 6.88889C16.3746 6.88889 19.1111 9.62544 19.1111 13C19.1111 16.3746 16.3746 19.1111 13 19.1111C9.62544 19.1111 6.88889 16.3746 6.88889 13C6.88889 9.62544 9.62544 6.88889 13 6.88889ZM13 9.33333C12.0275 9.33333 11.0949 9.71964 10.4073 10.4073C9.71964 11.0949 9.33333 12.0275 9.33333 13C9.33333 13.9725 9.71964 14.9051 10.4073 15.5927C11.0949 16.2804 12.0275 16.6667 13 16.6667C13.9725 16.6667 14.9051 16.2804 15.5927 15.5927C16.2804 14.9051 16.6667 13.9725 16.6667 13C16.6667 12.0275 16.2804 11.0949 15.5927 10.4073C14.9051 9.71964 13.9725 9.33333 13 9.33333Z" fill="#6FC4E8"/>
</svg>
