<svg width="25" height="25" viewBox="0 0 25 25" fill="none" xmlns="http://www.w3.org/2000/svg">
<g clip-path="url(#clip0_1758_6162)">
<path d="M6.09375 23.9583C5.2691 23.9583 4.56814 23.6697 3.99089 23.0924C3.41363 22.5152 3.125 21.8142 3.125 20.9896C3.125 20.1649 3.41363 19.464 3.99089 18.8867C4.56814 18.3095 5.2691 18.0208 6.09375 18.0208C6.33681 18.0208 6.54948 18.0425 6.73177 18.0859C6.91406 18.1293 7.10069 18.1944 7.29167 18.2812L9.50521 15.5208C9.17535 15.1215 8.92361 14.6658 8.75 14.1536C8.57639 13.6415 8.53299 13.1076 8.61979 12.5521L5.46875 11.4844C5.20833 11.9184 4.86545 12.2569 4.4401 12.5C4.01476 12.7431 3.52431 12.8646 2.96875 12.8646C2.1441 12.8646 1.44314 12.576 0.865885 11.9987C0.288628 11.4214 0 10.7205 0 9.89583C0 9.07118 0.288628 8.37023 0.865885 7.79297C1.44314 7.21571 2.1441 6.92708 2.96875 6.92708C3.7934 6.92708 4.49436 7.21571 5.07161 7.79297C5.64887 8.37023 5.9375 9.07118 5.9375 9.89583V10L9.11458 11.0938C9.42708 10.5382 9.80469 10.1128 10.2474 9.81771C10.6901 9.52257 11.1806 9.31424 11.7188 9.19271V5.83333C11.0417 5.64236 10.5078 5.2691 10.1172 4.71354C9.72656 4.15799 9.53125 3.57639 9.53125 2.96875C9.53125 2.1441 9.81988 1.44314 10.3971 0.865885C10.9744 0.288628 11.6753 0 12.5 0C13.3247 0 14.0256 0.288628 14.6029 0.865885C15.1801 1.44314 15.4688 2.1441 15.4688 2.96875C15.4688 3.57639 15.2691 4.15799 14.8698 4.71354C14.4705 5.2691 13.941 5.64236 13.2812 5.83333V9.19271C13.8194 9.31424 14.3142 9.52257 14.7656 9.81771C15.217 10.1128 15.599 10.5382 15.9115 11.0938L19.0625 10V9.89583C19.0625 9.07118 19.3511 8.37023 19.9284 7.79297C20.5056 7.21571 21.2066 6.92708 22.0312 6.92708C22.8559 6.92708 23.5569 7.21571 24.1341 7.79297C24.7114 8.37023 25 9.07118 25 9.89583C25 10.7205 24.7114 11.4214 24.1341 11.9987C23.5569 12.576 22.8559 12.8646 22.0312 12.8646C21.4757 12.8646 20.9809 12.7431 20.5469 12.5C20.1128 12.2569 19.7743 11.9184 19.5312 11.4844L16.3802 12.5521C16.467 13.1076 16.428 13.6415 16.263 14.1536C16.0981 14.6658 15.842 15.1215 15.4948 15.5208L17.7083 18.2812C17.8993 18.1944 18.0859 18.1293 18.2682 18.0859C18.4505 18.0425 18.6594 18.0208 18.8948 18.0208C19.7358 18.0208 20.4427 18.3095 21.0156 18.8867C21.5885 19.464 21.875 20.1649 21.875 20.9896C21.875 21.8142 21.5864 22.5152 21.0091 23.0924C20.4319 23.6697 19.7309 23.9583 18.9062 23.9583C18.0816 23.9583 17.3806 23.6697 16.8034 23.0924C16.2261 22.5152 15.9375 21.8142 15.9375 20.9896C15.9375 20.6424 15.9852 20.3299 16.0807 20.0521C16.1762 19.7743 16.3108 19.5052 16.4844 19.2448L14.2708 16.4844C13.7131 16.7795 13.1179 16.9271 12.4853 16.9271C11.8528 16.9271 11.2587 16.7795 10.7031 16.4844L8.51562 19.2708C8.68924 19.5312 8.82378 19.796 8.91927 20.0651C9.01476 20.3342 9.0625 20.6424 9.0625 20.9896C9.0625 21.8142 8.77387 22.5152 8.19661 23.0924C7.61936 23.6697 6.9184 23.9583 6.09375 23.9583ZM2.96966 11.3021C3.36836 11.3021 3.70226 11.1672 3.97135 10.8975C4.24045 10.6278 4.375 10.2936 4.375 9.89492C4.375 9.49622 4.24015 9.16233 3.97044 8.89323C3.70074 8.62413 3.36654 8.48958 2.96784 8.48958C2.56914 8.48958 2.23524 8.62443 1.96615 8.89414C1.69705 9.16384 1.5625 9.49805 1.5625 9.89674C1.5625 10.2954 1.69735 10.6293 1.96706 10.8984C2.23676 11.1675 2.57096 11.3021 2.96966 11.3021ZM6.09466 22.3958C6.49336 22.3958 6.82726 22.261 7.09635 21.9913C7.36545 21.7216 7.5 21.3874 7.5 20.9887C7.5 20.59 7.36515 20.2561 7.09544 19.987C6.82574 19.7179 6.49154 19.5833 6.09284 19.5833C5.69414 19.5833 5.36024 19.7182 5.09115 19.9879C4.82205 20.2576 4.6875 20.5918 4.6875 20.9905C4.6875 21.3892 4.82235 21.7231 5.09206 21.9922C5.36176 22.2613 5.69596 22.3958 6.09466 22.3958ZM12.5009 4.375C12.8996 4.375 13.2335 4.24015 13.5026 3.97044C13.7717 3.70074 13.9062 3.36654 13.9062 2.96784C13.9062 2.56914 13.7714 2.23524 13.5017 1.96615C13.232 1.69705 12.8978 1.5625 12.4991 1.5625C12.1004 1.5625 11.7665 1.69735 11.4974 1.96706C11.2283 2.23676 11.0938 2.57096 11.0938 2.96966C11.0938 3.36836 11.2286 3.70226 11.4983 3.97135C11.768 4.24045 12.1022 4.375 12.5009 4.375ZM12.513 15.3646C13.1641 15.3646 13.7153 15.1345 14.1667 14.6745C14.6181 14.2144 14.8438 13.6589 14.8438 13.0078C14.8438 12.3568 14.6172 11.8056 14.1641 11.3542C13.7109 10.9028 13.1562 10.6771 12.5 10.6771C11.8576 10.6771 11.3064 10.9036 10.8464 11.3568C10.3863 11.8099 10.1562 12.3646 10.1562 13.0208C10.1562 13.6632 10.3863 14.2144 10.8464 14.6745C11.3064 15.1345 11.862 15.3646 12.513 15.3646ZM18.9072 22.3958C19.3059 22.3958 19.6398 22.261 19.9089 21.9913C20.178 21.7216 20.3125 21.3874 20.3125 20.9887C20.3125 20.59 20.1776 20.2561 19.9079 19.987C19.6382 19.7179 19.304 19.5833 18.9053 19.5833C18.5066 19.5833 18.1727 19.7182 17.9036 19.9879C17.6345 20.2576 17.5 20.5918 17.5 20.9905C17.5 21.3892 17.6349 21.7231 17.9046 21.9922C18.1743 22.2613 18.5085 22.3958 18.9072 22.3958ZM22.0322 11.3021C22.4309 11.3021 22.7648 11.1672 23.0339 10.8975C23.3029 10.6278 23.4375 10.2936 23.4375 9.89492C23.4375 9.49622 23.3026 9.16233 23.0329 8.89323C22.7632 8.62413 22.429 8.48958 22.0303 8.48958C21.6316 8.48958 21.2977 8.62443 21.0286 8.89414C20.7595 9.16384 20.625 9.49805 20.625 9.89674C20.625 10.2954 20.7599 10.6293 21.0296 10.8984C21.2993 11.1675 21.6335 11.3021 22.0322 11.3021Z" fill="#6FC4E8"/>
</g>
<defs>
<clipPath id="clip0_1758_6162">
<rect width="25" height="25" fill="white"/>
</clipPath>
</defs>
</svg>
