<svg width="25" height="25" viewBox="0 0 25 25" fill="none" xmlns="http://www.w3.org/2000/svg">
<path d="M20.3333 8.90365C19.7986 9.14236 19.2209 9.30469 18.6003 9.39062C19.2496 9.00868 19.6936 8.45009 19.9323 7.71484C19.3116 8.07769 18.6719 8.32118 18.013 8.44531C17.4306 7.8151 16.7001 7.5 15.8216 7.5C14.9909 7.5 14.2819 7.79362 13.6947 8.38086C13.1074 8.9681 12.8138 9.67708 12.8138 10.5078C12.8138 10.7847 12.8377 11.0139 12.8854 11.1953C11.6536 11.1285 10.4983 10.8181 9.41927 10.2643C8.34028 9.7105 7.42361 8.97049 6.66927 8.04427C6.39236 8.5217 6.25391 9.02778 6.25391 9.5625C6.25391 10.651 6.68837 11.4865 7.55729 12.069C7.10851 12.0595 6.63108 11.9353 6.125 11.6966V11.7253C6.125 12.4414 6.36372 13.0788 6.84115 13.6374C7.31858 14.196 7.90582 14.5421 8.60286 14.6758C8.32595 14.7522 8.08247 14.7904 7.8724 14.7904C7.74826 14.7904 7.56207 14.7713 7.3138 14.7331C7.51432 15.3346 7.87001 15.8312 8.38086 16.2227C8.89171 16.6142 9.47179 16.8147 10.1211 16.8242C9.01345 17.6836 7.76736 18.1133 6.38281 18.1133C6.13455 18.1133 5.89583 18.099 5.66667 18.0703C7.07986 18.9679 8.61719 19.4167 10.2786 19.4167C11.3481 19.4167 12.3507 19.2472 13.2865 18.9082C14.2222 18.5692 15.0243 18.1157 15.6927 17.5475C16.3611 16.9794 16.9364 16.3253 17.4186 15.5853C17.9008 14.8453 18.2589 14.0718 18.4928 13.265C18.7268 12.4581 18.8438 11.6536 18.8438 10.8516C18.8438 10.6797 18.839 10.5508 18.8294 10.4648C19.431 10.0352 19.9323 9.51476 20.3333 8.90365ZM24 6.125V19.875C24 21.0113 23.5966 21.9829 22.7897 22.7897C21.9829 23.5966 21.0113 24 19.875 24H6.125C4.98872 24 4.01714 23.5966 3.21029 22.7897C2.40343 21.9829 2 21.0113 2 19.875V6.125C2 4.98872 2.40343 4.01714 3.21029 3.21029C4.01714 2.40343 4.98872 2 6.125 2H19.875C21.0113 2 21.9829 2.40343 22.7897 3.21029C23.5966 4.01714 24 4.98872 24 6.125Z" fill="#6FC4E8"/>
</svg>
