<svg width="25" height="25" viewBox="0 0 25 25" fill="none" xmlns="http://www.w3.org/2000/svg">
<path d="M23.5402 6.4046C23.2872 5.4586 22.5414 4.7128 21.5954 4.4598C19.8794 4 13 4 13 4C13 4 6.1206 4 4.4046 4.4598C3.4586 4.7128 2.7128 5.4586 2.4598 6.4046C2 8.1206 2 12.8 2 12.8C2 12.8 2 17.4794 2.4598 19.1954C2.7128 20.1414 3.4586 20.8872 4.4046 21.1402C6.1206 21.6 13 21.6 13 21.6C13 21.6 19.8794 21.6 21.5954 21.1402C22.5425 20.8872 23.2872 20.1414 23.5402 19.1954C24 17.4794 24 12.8 24 12.8C24 12.8 24 8.1206 23.5402 6.4046ZM10.8 16.6104V8.9896L17.4 12.8L10.8 16.6104Z" fill="#6FC4E8"/>
</svg>
