<svg width="25" height="25" viewBox="0 0 25 25" fill="none" xmlns="http://www.w3.org/2000/svg">
<path d="M3.90617 20.8333C3.40487 20.8333 2.97572 20.6549 2.61872 20.2979C2.26174 19.9409 2.08325 19.5117 2.08325 19.0104V7.29168H3.64575V19.2708H18.7499V20.8333H3.90617ZM8.07283 16.6667C7.57153 16.6667 7.14238 16.4882 6.78539 16.1312C6.42841 15.7742 6.24992 15.3451 6.24992 14.8438V5.98959C6.24992 5.48829 6.42841 5.05914 6.78539 4.70215C7.14238 4.34517 7.57153 4.16668 8.07283 4.16668H17.1353L15.5728 5.72918H7.81242V15.1042H21.3541V7.34376L22.9166 5.78126V14.8438C22.9166 15.3451 22.7381 15.7742 22.3811 16.1312C22.0241 16.4882 21.595 16.6667 21.0937 16.6667H8.07283ZM14.0624 12.2656C13.6978 12.2656 13.3593 12.1875 13.0468 12.0313C12.7343 11.875 12.4652 11.6493 12.2395 11.3542C12.4826 11.3542 12.6952 11.263 12.8775 11.0807C13.0598 10.8984 13.151 10.6858 13.151 10.4427C13.151 10.0666 13.285 9.74682 13.5531 9.48353C13.8211 9.22021 14.1467 9.08855 14.5296 9.08855C14.9126 9.08855 15.2343 9.22086 15.4947 9.48548C15.7551 9.7501 15.8853 10.0714 15.8853 10.4494C15.8853 10.9484 15.7068 11.3759 15.3499 11.7318C14.9929 12.0877 14.5637 12.2656 14.0624 12.2656ZM17.1614 9.29689L15.677 7.81251L20.2343 3.3073C20.3148 3.2205 20.4087 3.17709 20.516 3.17709C20.6233 3.17709 20.7194 3.21953 20.8043 3.30441L21.6955 4.19561C21.7804 4.28049 21.8228 4.37659 21.8228 4.48392C21.8228 4.59124 21.7794 4.68515 21.6926 4.76564L17.1614 9.29689Z" fill="#6FC4E8"/>
</svg>
